HIERARCHY
ROOT Hips
{
    OFFSET   0.000000   0.000000   0.000000
    CHANNELS 6 Xposition Yposition Zposition Zrotation Xrotation Yrotation
    JOINT Chest
    {
        OFFSET   0.000000   8.007230   0.000000
        CHANNELS 3 Zrotation Xrotation Yrotation
        JOINT Chest2
        {
            OFFSET   0.000000  22.077100   0.000000
            CHANNELS 3 Zrotation Xrotation Yrotation
            JOINT Neck
            {
                OFFSET   0.000000  23.254800   0.000000
                CHANNELS 3 Zrotation Xrotation Yrotation
                JOINT Head
                {
                    OFFSET   0.000010  14.370000   1.956600
                    CHANNELS 3 Zrotation Xrotation Yrotation
                    End Site
                    {
                        OFFSET   0.000000  19.566000   0.000000
                    }
                }
            }
            JOINT LeftCollar
            {
                OFFSET   3.911900  19.017000  -0.467062
                CHANNELS 3 Zrotation Xrotation Yrotation
                JOINT LeftShoulder
                {
                    OFFSET  10.383700   0.000000   0.000000
                    CHANNELS 3 Zrotation Xrotation Yrotation
                    JOINT LeftElbow
                    {
                        OFFSET  26.662100   0.001193   0.000835
                        CHANNELS 3 Zrotation Xrotation Yrotation
                        JOINT LeftWrist
                        {
                            OFFSET  28.869000  -0.000058  -0.000075
                            CHANNELS 3 Zrotation Xrotation Yrotation
                            JOINT LeftFinger0
                            {
                                OFFSET   2.044660  -2.323460   3.252850
                                CHANNELS 3 Zrotation Xrotation Yrotation
                                JOINT LeftFinger01
                                {
                                    OFFSET   3.088130   0.000000   0.000000
                                    CHANNELS 3 Zrotation Xrotation Yrotation
                                    JOINT LeftFinger02
                                    {
                                        OFFSET   2.639450   0.000000   0.000000
                                        CHANNELS 3 Zrotation Xrotation Yrotation
                                        End Site
                                        {
                                            OFFSET   2.582190   0.000000   0.000000
                                        }
                                    }
                                }
                            }
                            JOINT LeftFinger1
                            {
                                OFFSET   8.364480   0.000000   3.252850
                                CHANNELS 3 Zrotation Xrotation Yrotation
                                JOINT LeftFinger11
                                {
                                    OFFSET   4.646920   0.000000   0.000000
                                    CHANNELS 3 Zrotation Xrotation Yrotation
                                    JOINT LeftFinger12
                                    {
                                        OFFSET   2.323460   0.000000   0.000000
                                        CHANNELS 3 Zrotation Xrotation Yrotation
                                        End Site
                                        {
                                            OFFSET   2.273050   0.000000   0.000000
                                        }
                                    }
                                }
                            }
                            JOINT LeftFinger2
                            {
                                OFFSET   8.364490   0.000016   1.078090
                                CHANNELS 3 Zrotation Xrotation Yrotation
                                JOINT LeftFinger21
                                {
                                    OFFSET   5.111620   0.000000   0.000000
                                    CHANNELS 3 Zrotation Xrotation Yrotation
                                    JOINT LeftFinger22
                                    {
                                        OFFSET   2.788150   0.000012   0.000000
                                        CHANNELS 3 Zrotation Xrotation Yrotation
                                        End Site
                                        {
                                            OFFSET   2.727660   0.000000   0.000000
                                        }
                                    }
                                }
                            }
                            JOINT LeftFinger3
                            {
                                OFFSET   7.899780   0.000014  -1.078090
                                CHANNELS 3 Zrotation Xrotation Yrotation
                                JOINT LeftFinger31
                                {
                                    OFFSET   4.646930   0.000000   0.000000
                                    CHANNELS 3 Zrotation Xrotation Yrotation
                                    JOINT LeftFinger32
                                    {
                                        OFFSET   2.323470   0.000000   0.000000
                                        CHANNELS 3 Zrotation Xrotation Yrotation
                                        End Site
                                        {
                                            OFFSET   2.273050   0.000000   0.000000
                                        }
                                    }
                                }
                            }
                            JOINT LeftFinger4
                            {
                                OFFSET   7.435090   0.000000  -3.252850
                                CHANNELS 3 Zrotation Xrotation Yrotation
                                JOINT LeftFinger41
                                {
                                    OFFSET   3.717550   0.000000   0.000000
                                    CHANNELS 3 Zrotation Xrotation Yrotation
                                    JOINT LeftFinger42
                                    {
                                        OFFSET   1.858770   0.000000   0.000000
                                        CHANNELS 3 Zrotation Xrotation Yrotation
                                        End Site
                                        {
                                            OFFSET   1.818440   0.000000   0.000000
                                        }
                                    }
                                }
                            }
                        }
                    }
                }
            }
            JOINT RightCollar
            {
                OFFSET  -3.911900  19.017000  -0.467063
                CHANNELS 3 Zrotation Xrotation Yrotation
                JOINT RightShoulder
                {
                    OFFSET -10.383700   0.000023   0.000000
                    CHANNELS 3 Zrotation Xrotation Yrotation
                    JOINT RightElbow
                    {
                        OFFSET -26.662100   0.001246   0.001011
                        CHANNELS 3 Zrotation Xrotation Yrotation
                        JOINT RightWrist
                        {
                            OFFSET -28.869000  -0.000026  -0.000078
                            CHANNELS 3 Zrotation Xrotation Yrotation
                            JOINT RightFinger0
                            {
                                OFFSET  -2.044660  -2.323490   3.252850
                                CHANNELS 3 Zrotation Xrotation Yrotation
                                JOINT RightFinger01
                                {
                                    OFFSET  -3.088130   0.000000   0.000000
                                    CHANNELS 3 Zrotation Xrotation Yrotation
                                    JOINT RightFinger02
                                    {
                                        OFFSET  -2.639460   0.000000   0.000000
                                        CHANNELS 3 Zrotation Xrotation Yrotation
                                        End Site
                                        {
                                            OFFSET  -2.582190   0.000000   0.000000
                                        }
                                    }
                                }
                            }
                            JOINT RightFinger1
                            {
                                OFFSET  -8.364480   0.000000   3.252850
                                CHANNELS 3 Zrotation Xrotation Yrotation
                                JOINT RightFinger11
                                {
                                    OFFSET  -4.646920   0.000000   0.000000
                                    CHANNELS 3 Zrotation Xrotation Yrotation
                                    JOINT RightFinger12
                                    {
                                        OFFSET  -2.323470   0.000000   0.000000
                                        CHANNELS 3 Zrotation Xrotation Yrotation
                                        End Site
                                        {
                                            OFFSET  -2.273050   0.000000   0.000000
                                        }
                                    }
                                }
                            }
                            JOINT RightFinger2
                            {
                                OFFSET  -8.364480   0.000000   1.078090
                                CHANNELS 3 Zrotation Xrotation Yrotation
                                JOINT RightFinger21
                                {
                                    OFFSET  -5.111620   0.000000   0.000000
                                    CHANNELS 3 Zrotation Xrotation Yrotation
                                    JOINT RightFinger22
                                    {
                                        OFFSET  -2.788160   0.000000   0.000000
                                        CHANNELS 3 Zrotation Xrotation Yrotation
                                        End Site
                                        {
                                            OFFSET  -2.727660   0.000000   0.000000
                                        }
                                    }
                                }
                            }
                            JOINT RightFinger3
                            {
                                OFFSET  -7.899780   0.000000  -1.078090
                                CHANNELS 3 Zrotation Xrotation Yrotation
                                JOINT RightFinger31
                                {
                                    OFFSET  -4.646930   0.000000   0.000000
                                    CHANNELS 3 Zrotation Xrotation Yrotation
                                    JOINT RightFinger32
                                    {
                                        OFFSET  -2.323470   0.000000   0.000000
                                        CHANNELS 3 Zrotation Xrotation Yrotation
                                        End Site
                                        {
                                            OFFSET  -2.273050   0.000000   0.000000
                                        }
                                    }
                                }
                            }
                            JOINT RightFinger4
                            {
                                OFFSET  -7.435090   0.000000  -3.252850
                                CHANNELS 3 Zrotation Xrotation Yrotation
                                JOINT RightFinger41
                                {
                                    OFFSET  -3.717550   0.000000   0.000000
                                    CHANNELS 3 Zrotation Xrotation Yrotation
                                    JOINT RightFinger42
                                    {
                                        OFFSET  -1.858760   0.000000   0.000000
                                        CHANNELS 3 Zrotation Xrotation Yrotation
                                        End Site
                                        {
                                            OFFSET  -1.818440   0.000000   0.000000
                                        }
                                    }
                                }
                            }
                        }
                    }
                }
            }
        }
    }
    JOINT LeftHip
    {
        OFFSET   9.783010   0.000000   0.000000
        CHANNELS 3 Zrotation Xrotation Yrotation
        JOINT LeftKnee
        {
            OFFSET   0.000073 -41.789100   0.001749
            CHANNELS 3 Zrotation Xrotation Yrotation
            JOINT LeftAnkle
            {
                OFFSET   0.000111 -41.133200  -0.000179
                CHANNELS 3 Zrotation Xrotation Yrotation
                JOINT LeftToe
                {
                    OFFSET   0.000000  -6.358960  14.674500
                    CHANNELS 3 Zrotation Xrotation Yrotation
                    End Site
                    {
                        OFFSET   0.000000   0.000000   3.913200
                    }
                }
            }
        }
    }
    JOINT RightHip
    {
        OFFSET  -9.783010   0.000000   0.000000
        CHANNELS 3 Zrotation Xrotation Yrotation
        JOINT RightKnee
        {
            OFFSET   0.000424 -41.789200   0.005205
            CHANNELS 3 Zrotation Xrotation Yrotation
            JOINT RightAnkle
            {
                OFFSET   0.000000 -41.133200  -0.000155
                CHANNELS 3 Zrotation Xrotation Yrotation
                JOINT RightToe
                {
                    OFFSET   0.000000  -6.358960  14.674500
                    CHANNELS 3 Zrotation Xrotation Yrotation
                    End Site
                    {
                        OFFSET   0.000000   0.000000   3.913200
                    }
                }
            }
        }
    }
}
MOTION
Frames: 4
Frame Time:   0.016667
 -0.263837  89.855200  -0.148729  -1.046110  -8.576970  -0.215810   0.114038   7.739300  -0.307104   0.274189  15.477900  -0.638795   0.261256  -3.892680   0.020799   0.435270  -7.893120   7.775750  -8.836450  -8.450580   2.311270 -47.728700  38.431800 -47.645100  -6.642910 -11.222300 -107.398000 -38.670500 -70.498800 -43.065000  91.673300  71.139800 -130.285000 -64.550800   0.001807   0.003871 -36.330800  -0.001200  -0.003644 -88.996100   5.000780  -0.088008 -84.104200   0.001352  -0.001646 -63.078100   0.000256  -0.002590 -88.999500   0.001179  -0.001127 -90.733300  -0.006333  -0.001291 -68.050000   0.001404  -0.006397 -83.302900  -4.958460   0.578367 -83.327800  -0.004916   0.000074 -62.495800   0.000325  -0.001093 -88.984100  -9.997030   0.179079 -110.000000   0.000000   0.002110 -80.000000  -0.000281  -0.001858  12.955600  -3.132930  18.734800  49.226200  29.860000  34.921200  -0.298757 -16.436300 111.256000  17.394600 -42.723400  39.761400 -21.237400  53.241900  52.883900  80.278700   0.004560  -0.026576  46.805600   0.004054  -0.008232  88.996100   5.004500   0.088955  81.898100   0.003868   0.005714  61.423500   0.003509   0.000804  84.043800   0.001011   0.001377  84.043800   0.001184   0.008039  63.032800   0.006678   0.005447  88.444900  -5.002770  -0.135551  88.450900   0.001900   0.000765  66.338200   0.000464  -0.002204  88.982800  -9.996580  -0.173824 110.000000  -0.003000  -0.003367  79.999900  -0.007527   0.007787   1.673220  10.220400   2.545830  -0.123454   1.543030  10.556200  -4.892370  -4.625280   3.095250   0.000000   0.000000   0.000000   0.473773   9.896970  -9.258590   0.240032   3.049910  -9.729330  -5.256480  -1.306390   1.133320   0.000000   0.000000   0.000000
 -0.254261  89.855200  -0.106680  -1.049190  -8.551350  -0.237866   0.121177   7.691820  -0.287684   0.285657  15.382900  -0.600193   0.270334  -3.882560   0.020872   0.450305  -7.872260   7.701390  -8.827060  -8.394070   2.264940 -47.742800  38.364600 -47.645700  -6.582900 -11.282900 -107.423000 -37.961400 -70.286400 -42.446800  91.760300  71.170300 -130.364000 -64.627800   0.001810   0.003858 -36.382100  -0.001131  -0.003814 -88.996100   5.000700  -0.087995 -84.143500   0.001321  -0.001606 -63.107600   0.000256  -0.002570 -88.999400   0.001179  -0.001080 -90.752800  -0.006308  -0.001258 -68.064600   0.001333  -0.006620 -83.325900  -4.958480   0.580802 -83.351000  -0.004983  -0.000000 -62.513200   0.000309  -0.001158 -88.984100  -9.997080   0.179131 -110.000000   0.000000   0.002015 -80.000000  -0.000250  -0.001821  12.949400  -3.075350  18.708600  49.220900  29.834000  34.945200  -0.325016 -16.547500 111.187000  17.629000 -42.604000  39.896700 -21.325500  53.398500  52.832700  80.248600   0.004451  -0.025729  46.785400   0.004104  -0.008166  88.996000   5.004510   0.089089  81.903800   0.003915   0.005708  61.427800   0.003369   0.000885  84.113400   0.000835   0.001338  84.113400   0.001150   0.007948  63.085000   0.006551   0.005353  88.478700  -5.002770  -0.132641  88.484500   0.002134   0.000957  66.363400   0.000613  -0.002134  88.982700  -9.996590  -0.174049 110.000000  -0.002968  -0.003335  79.999900  -0.007601   0.007712   1.658410  10.224100   2.554480  -0.134859   1.545080  10.556700  -4.880840  -4.654410   3.118190  -0.000000   0.000000   0.000000   0.472139   9.900600  -9.256390   0.241405   3.048060  -9.726030  -5.254200  -1.329110   1.145990   0.000000   0.000000  -0.000000
 -0.241236  89.855200  -0.064702  -1.051390  -8.527550  -0.253635   0.130247   7.648140  -0.276676   0.302251  15.295500  -0.578931   0.279858  -3.874400   0.020939   0.466000  -7.856080   7.651890  -8.819700  -8.350040   2.242640 -47.751300  38.292400 -47.649800  -6.566240 -11.338400 -107.458000 -37.280900 -70.112700 -41.869700  91.874000  71.207600 -130.460000 -64.725200   0.001809   0.003845 -36.447000  -0.001063  -0.003984 -88.996100   5.000640  -0.088017 -84.136900   0.001278  -0.001573 -63.102600   0.000272  -0.002553 -88.999300   0.001190  -0.001040 -90.735800  -0.006292  -0.001222 -68.051900   0.001286  -0.006853 -83.318900  -4.958500   0.583259 -83.344200  -0.005054  -0.000072 -62.508100   0.000317  -0.001249 -88.984100  -9.997130   0.179172 -110.000000   0.000000   0.001913 -80.000000  -0.000219  -0.001783  12.947000  -3.029140  18.694500  49.175500  29.818200  35.000500  -0.329192 -16.645100 111.143000  17.637900 -42.555000  39.911100 -21.401100  53.575500  52.766700  80.217600   0.004345  -0.024853  46.764900   0.004150  -0.008100  88.996000   5.004510   0.089228  81.888000   0.003959   0.005691  61.416000   0.003231   0.000959  84.123000   0.000636   0.001316  84.123000   0.001111   0.007857  63.092200   0.006426   0.005270  88.410300  -5.002770  -0.138595  88.416400   0.002376   0.001153  66.312300   0.000772  -0.002068  88.982600  -9.996620  -0.174248 110.000000  -0.002946  -0.003286  79.999900  -0.007677   0.007640   1.645690  10.228900   2.557950  -0.144656   1.549490  10.542200  -4.868600  -4.690220   3.148280   0.000000   0.000000   0.000000   0.463877   9.900260  -9.254680   0.249090   3.051630  -9.726220  -5.251200  -1.350190   1.151230  -0.000000   0.000000   0.000000
 -0.227005  89.855100  -0.023557  -1.052340  -8.503200  -0.260866   0.140692   7.605360  -0.268768   0.322073  15.210000  -0.564137   0.287856  -3.869450   0.021004   0.479333  -7.845910   7.613730  -8.815270  -8.312070   2.225770 -47.757100  38.221200 -47.657200  -6.565490 -11.395200 -107.489000 -36.650800 -69.966500 -41.345700  91.978900  71.241300 -130.550000 -64.814100   0.001806   0.003838 -36.506200  -0.000999  -0.004157 -88.996200   5.000570  -0.088038 -84.130200   0.001233  -0.001544 -63.097600   0.000295  -0.002537 -88.999200   0.001201  -0.001001 -90.718800  -0.006276  -0.001193 -68.039100   0.001243  -0.007085 -83.311900  -4.958520   0.585553 -83.337400  -0.005130  -0.000141 -62.503000   0.000332  -0.001347 -88.984100  -9.997180   0.179212 -110.000000  -0.000000   0.001811 -80.000000  -0.000190  -0.001744  12.948500  -2.993230  18.684400  49.122100  29.805000  35.065900  -0.331160 -16.756200 111.095000  17.611300 -42.505900  39.889900 -21.472700  53.687500  52.721200  80.191000   0.004239  -0.024074  46.747400   0.004195  -0.008033  88.996000   5.004500   0.089367  81.872300   0.004003   0.005672  61.404200   0.003097   0.001039  84.126600   0.000427   0.001299  84.126600   0.001072   0.007764  63.094900   0.006306   0.005192  88.282500  -5.002780  -0.149720  88.289000   0.002621   0.001352  66.216800   0.000932  -0.002004  88.982400  -9.996650  -0.174444 110.000000  -0.002925  -0.003235  79.999900  -0.007751   0.007567   1.634320  10.233700   2.559000  -0.153550   1.552600  10.521200  -4.856390  -4.726530   3.177820   0.000000   0.000000   0.000000   0.454157   9.899990  -9.250360   0.259669   3.055190  -9.727380  -5.247080  -1.369390   1.152680  -0.000000   0.000000   0.000000
